<?xml version="1.0" encoding="UTF-8"?>
<svg xmlns="http://www.w3.org/2000/svg" xmlns:xlink="http://www.w3.org/1999/xlink" width="1920" height="1080" viewBox="0 0 1920 1080">
<defs>
<g>
<g id="glyph-0-0">
<path d="M 0.746094 -5.800781 C 1.410156 -6.082031 2.179688 -6.21875 3.046875 -6.21875 C 4.648438 -6.21875 5.453125 -5.683594 5.453125 -4.613281 C 5.453125 -4.015625 5.25 -3.628906 4.84375 -3.464844 C 4.441406 -3.296875 4.191406 -3.210938 4.097656 -3.203125 C 4.65625 -3.125 5.078125 -2.980469 5.359375 -2.765625 C 5.640625 -2.550781 5.78125 -2.15625 5.78125 -1.582031 C 5.78125 -1.015625 5.523438 -0.582031 5.011719 -0.28125 C 4.496094 0.015625 3.855469 0.164062 3.085938 0.164062 C 2.390625 0.164062 1.8125 0.0078125 1.351562 -0.308594 C 0.894531 -0.628906 0.613281 -1.015625 0.511719 -1.476562 L 1.355469 -1.476562 C 1.605469 -0.757812 2.195312 -0.398438 3.121094 -0.398438 C 3.589844 -0.398438 3.976562 -0.519531 4.285156 -0.761719 C 4.589844 -1 4.746094 -1.292969 4.746094 -1.628906 C 4.746094 -1.972656 4.578125 -2.265625 4.246094 -2.507812 C 3.914062 -2.753906 3.417969 -2.875 2.757812 -2.875 L 2.234375 -2.875 L 2.234375 -3.480469 L 2.507812 -3.480469 C 3.171875 -3.480469 3.660156 -3.578125 3.980469 -3.769531 C 4.296875 -3.964844 4.453125 -4.214844 4.453125 -4.515625 C 4.453125 -4.863281 4.320312 -5.132812 4.050781 -5.328125 C 3.78125 -5.519531 3.417969 -5.617188 2.957031 -5.617188 C 1.976562 -5.617188 1.445312 -5.292969 1.363281 -4.644531 L 0.746094 -4.644531 Z "/>
</g>
<g id="glyph-0-1">
<path d="M 6.214844 -5.453125 L 6.214844 -0.605469 L 7.160156 -0.605469 L 7.160156 0 L 4.222656 0 L 4.222656 -0.605469 L 5.167969 -0.605469 L 5.167969 -2.9375 L 2.390625 -2.9375 L 2.390625 -0.605469 L 3.339844 -0.605469 L 3.339844 0 L 0.398438 0 L 0.398438 -0.605469 L 1.34375 -0.605469 L 1.34375 -5.453125 L 0.398438 -5.453125 L 0.398438 -6.054688 L 3.339844 -6.054688 L 3.339844 -5.453125 L 2.390625 -5.453125 L 2.390625 -3.644531 L 5.167969 -3.644531 L 5.167969 -5.453125 L 4.222656 -5.453125 L 4.222656 -6.054688 L 7.160156 -6.054688 L 7.160156 -5.453125 Z "/>
</g>
<g id="glyph-0-2">
<path d="M 4.644531 -1.902344 L 4.644531 -3.183594 L 3.292969 -3.183594 C 2.773438 -3.183594 2.386719 -3.074219 2.128906 -2.847656 C 1.875 -2.625 1.75 -2.28125 1.75 -1.816406 C 1.75 -1.394531 1.878906 -1.0625 2.136719 -0.816406 C 2.394531 -0.566406 2.742188 -0.445312 3.183594 -0.445312 C 3.621094 -0.445312 3.972656 -0.578125 4.242188 -0.847656 C 4.507812 -1.117188 4.644531 -1.46875 4.644531 -1.902344 M 5.691406 -3.78125 L 5.691406 -0.605469 L 6.625 -0.605469 L 6.625 0 L 4.644531 0 L 4.644531 -0.65625 C 4.410156 -0.375 4.144531 -0.167969 3.839844 -0.0351562 C 3.535156 0.0976562 3.179688 0.164062 2.773438 0.164062 C 2.101562 0.164062 1.570312 -0.0117188 1.171875 -0.371094 C 0.777344 -0.726562 0.582031 -1.210938 0.582031 -1.816406 C 0.582031 -2.445312 0.808594 -2.929688 1.257812 -3.277344 C 1.710938 -3.621094 2.347656 -3.792969 3.171875 -3.792969 L 4.644531 -3.792969 L 4.644531 -4.210938 C 4.644531 -4.667969 4.503906 -5.023438 4.222656 -5.277344 C 3.945312 -5.53125 3.554688 -5.65625 3.046875 -5.65625 C 2.628906 -5.65625 2.296875 -5.5625 2.050781 -5.371094 C 1.804688 -5.183594 1.648438 -4.902344 1.589844 -4.527344 L 1.046875 -4.527344 L 1.046875 -5.753906 C 1.414062 -5.910156 1.765625 -6.027344 2.109375 -6.105469 C 2.453125 -6.183594 2.789062 -6.21875 3.117188 -6.21875 C 3.957031 -6.21875 4.59375 -6.011719 5.03125 -5.597656 C 5.472656 -5.179688 5.691406 -4.578125 5.691406 -3.78125 Z "/>
</g>
<g id="glyph-0-3">
<path d="M 0.398438 0 L 0.398438 -0.605469 L 1.34375 -0.605469 L 1.34375 -5.453125 L 0.398438 -5.453125 L 0.398438 -6.054688 L 3.339844 -6.054688 L 3.339844 -5.453125 L 2.390625 -5.453125 L 2.390625 -1.976562 L 5.167969 -4.910156 L 5.167969 -5.453125 L 4.222656 -5.453125 L 4.222656 -6.054688 L 7.160156 -6.054688 L 7.160156 -5.453125 L 6.214844 -5.453125 L 6.214844 -0.605469 L 7.160156 -0.605469 L 7.160156 0 L 4.222656 0 L 4.222656 -0.605469 L 5.167969 -0.605469 L 5.167969 -3.988281 L 2.390625 -1.054688 L 2.390625 -0.605469 L 3.339844 -0.605469 L 3.339844 0 Z "/>
</g>
<g id="glyph-0-4">
<path d="M 6.324219 -2.917969 L 1.804688 -2.917969 L 1.804688 -2.871094 C 1.804688 -2.054688 1.960938 -1.4375 2.265625 -1.023438 C 2.574219 -0.605469 3.027344 -0.398438 3.628906 -0.398438 C 4.089844 -0.398438 4.464844 -0.519531 4.757812 -0.761719 C 5.054688 -1 5.261719 -1.359375 5.378906 -1.835938 L 6.21875 -1.835938 C 6.054688 -1.167969 5.746094 -0.671875 5.296875 -0.335938 C 4.84375 0 4.253906 0.164062 3.519531 0.164062 C 2.636719 0.164062 1.925781 -0.125 1.386719 -0.710938 C 0.851562 -1.292969 0.582031 -2.066406 0.582031 -3.03125 C 0.582031 -3.988281 0.84375 -4.757812 1.371094 -5.34375 C 1.902344 -5.929688 2.59375 -6.21875 3.453125 -6.21875 C 4.367188 -6.21875 5.070312 -5.9375 5.558594 -5.375 C 6.050781 -4.8125 6.304688 -3.992188 6.324219 -2.917969 M 5.085938 -3.519531 C 5.0625 -4.226562 4.914062 -4.757812 4.640625 -5.117188 C 4.363281 -5.476562 3.96875 -5.65625 3.453125 -5.65625 C 2.96875 -5.65625 2.589844 -5.476562 2.3125 -5.117188 C 2.035156 -4.753906 1.867188 -4.222656 1.804688 -3.519531 Z "/>
</g>
<g id="glyph-0-5">
</g>
<g id="glyph-0-6">
<path d="M 6 -1.816406 C 5.851562 -1.171875 5.566406 -0.679688 5.144531 -0.34375 C 4.722656 -0.00390625 4.175781 0.164062 3.507812 0.164062 C 2.628906 0.164062 1.917969 -0.125 1.382812 -0.710938 C 0.847656 -1.292969 0.582031 -2.066406 0.582031 -3.03125 C 0.582031 -4 0.847656 -4.773438 1.382812 -5.351562 C 1.917969 -5.929688 2.628906 -6.21875 3.507812 -6.21875 C 3.894531 -6.21875 4.273438 -6.175781 4.652344 -6.085938 C 5.035156 -5.996094 5.414062 -5.863281 5.800781 -5.679688 L 5.800781 -4.128906 L 5.191406 -4.128906 C 5.109375 -4.660156 4.9375 -5.050781 4.667969 -5.292969 C 4.402344 -5.535156 4.019531 -5.65625 3.519531 -5.65625 C 2.953125 -5.65625 2.527344 -5.4375 2.238281 -5 C 1.949219 -4.558594 1.804688 -3.902344 1.804688 -3.03125 C 1.804688 -2.15625 1.949219 -1.5 2.234375 -1.058594 C 2.523438 -0.617188 2.949219 -0.398438 3.519531 -0.398438 C 3.972656 -0.398438 4.332031 -0.515625 4.601562 -0.75 C 4.871094 -0.988281 5.058594 -1.34375 5.15625 -1.816406 Z "/>
</g>
<g id="glyph-0-7">
<path d="M 3.507812 -0.398438 C 4.070312 -0.398438 4.496094 -0.621094 4.78125 -1.066406 C 5.070312 -1.507812 5.210938 -2.164062 5.210938 -3.03125 C 5.210938 -3.898438 5.070312 -4.550781 4.78125 -4.992188 C 4.496094 -5.433594 4.070312 -5.65625 3.507812 -5.65625 C 2.945312 -5.65625 2.523438 -5.433594 2.234375 -4.992188 C 1.949219 -4.550781 1.804688 -3.898438 1.804688 -3.03125 C 1.804688 -2.164062 1.949219 -1.507812 2.238281 -1.066406 C 2.527344 -0.621094 2.949219 -0.398438 3.507812 -0.398438 M 3.507812 0.164062 C 2.628906 0.164062 1.917969 -0.125 1.382812 -0.710938 C 0.847656 -1.292969 0.582031 -2.066406 0.582031 -3.03125 C 0.582031 -3.996094 0.847656 -4.769531 1.382812 -5.347656 C 1.914062 -5.929688 2.625 -6.21875 3.507812 -6.21875 C 4.394531 -6.21875 5.101562 -5.929688 5.636719 -5.347656 C 6.171875 -4.769531 6.4375 -3.996094 6.4375 -3.03125 C 6.4375 -2.066406 6.171875 -1.292969 5.636719 -0.710938 C 5.101562 -0.125 4.394531 0.164062 3.507812 0.164062 Z "/>
</g>
<g id="glyph-0-8">
<path d="M 0.574219 -3.03125 L 0.523438 -4.03125 C 0.503906 -4.441406 0.496094 -4.730469 0.496094 -4.910156 C 0.496094 -5.089844 0.519531 -5.335938 0.5625 -5.65625 C 0.609375 -5.976562 0.695312 -6.265625 0.824219 -6.527344 C 1.164062 -7.207031 1.652344 -7.703125 2.296875 -8.007812 C 2.652344 -8.179688 3.09375 -8.292969 3.617188 -8.34375 C 4.140625 -8.398438 4.480469 -8.453125 4.640625 -8.503906 C 4.796875 -8.558594 4.960938 -8.648438 5.132812 -8.773438 C 5.304688 -8.898438 5.402344 -8.992188 5.429688 -9.058594 L 6.03125 -9.058594 C 5.976562 -8.695312 5.800781 -8.335938 5.503906 -7.976562 C 5.210938 -7.613281 4.925781 -7.414062 4.652344 -7.371094 C 3.367188 -7.175781 2.601562 -7.027344 2.359375 -6.933594 C 2.117188 -6.835938 1.804688 -6.585938 1.425781 -6.175781 C 1.171875 -5.90625 1.050781 -5.414062 1.054688 -4.707031 C 1.257812 -5.109375 1.535156 -5.464844 1.878906 -5.769531 C 2.222656 -6.070312 2.761719 -6.21875 3.503906 -6.21875 C 4.386719 -6.21875 5.097656 -5.929688 5.632812 -5.347656 C 6.164062 -4.769531 6.429688 -3.996094 6.429688 -3.03125 C 6.429688 -2.066406 6.164062 -1.292969 5.632812 -0.710938 C 5.097656 -0.125 4.390625 0.164062 3.507812 0.164062 C 2.625 0.164062 1.925781 -0.113281 1.417969 -0.667969 C 0.910156 -1.222656 0.628906 -2.007812 0.574219 -3.03125 M 3.503906 -5.65625 C 2.367188 -5.65625 1.800781 -4.78125 1.800781 -3.03125 C 1.800781 -2.164062 1.945312 -1.507812 2.234375 -1.066406 C 2.523438 -0.621094 2.945312 -0.398438 3.503906 -0.398438 C 4.640625 -0.398438 5.207031 -1.277344 5.207031 -3.03125 C 5.207031 -4.78125 4.640625 -5.65625 3.503906 -5.65625 Z "/>
</g>
<g id="glyph-0-9">
<path d="M 2.390625 -3.328125 L 2.390625 -2.730469 C 2.390625 -2 2.53125 -1.445312 2.8125 -1.0625 C 3.089844 -0.679688 3.496094 -0.488281 4.027344 -0.488281 C 4.5625 -0.488281 4.96875 -0.703125 5.242188 -1.132812 C 5.519531 -1.5625 5.65625 -2.195312 5.65625 -3.03125 C 5.65625 -3.871094 5.519531 -4.503906 5.242188 -4.925781 C 4.96875 -5.351562 4.5625 -5.566406 4.027344 -5.566406 C 3.496094 -5.566406 3.089844 -5.375 2.8125 -4.992188 C 2.53125 -4.605469 2.390625 -4.050781 2.390625 -3.328125 M 1.34375 -5.445312 L 0.335938 -5.445312 L 0.335938 -6.054688 L 2.390625 -6.054688 L 2.390625 -5.109375 C 2.597656 -5.488281 2.859375 -5.769531 3.175781 -5.949219 C 3.492188 -6.128906 3.886719 -6.21875 4.351562 -6.21875 C 5.097656 -6.21875 5.703125 -5.925781 6.175781 -5.335938 C 6.644531 -4.75 6.882812 -3.980469 6.882812 -3.03125 C 6.882812 -2.082031 6.644531 -1.3125 6.175781 -0.71875 C 5.703125 -0.128906 5.097656 0.164062 4.351562 0.164062 C 3.886719 0.164062 3.492188 0.0742188 3.175781 -0.105469 C 2.859375 -0.285156 2.597656 -0.566406 2.390625 -0.945312 L 2.390625 1.816406 L 3.382812 1.816406 L 3.382812 2.425781 L 0.335938 2.425781 L 0.335938 1.816406 L 1.34375 1.816406 Z "/>
</g>
<g id="glyph-0-10">
<path d="M 6.011719 -6.054688 L 6.011719 -4.410156 L 5.410156 -4.410156 L 5.410156 -5.355469 L 3.765625 -5.355469 L 3.765625 -0.605469 L 4.710938 -0.605469 L 4.710938 0 L 1.773438 0 L 1.773438 -0.605469 L 2.71875 -0.605469 L 2.71875 -5.355469 L 1.070312 -5.355469 L 1.070312 -4.410156 L 0.472656 -4.410156 L 0.472656 -6.054688 Z "/>
</g>
<g id="glyph-0-11">
<path d="M 4.6875 -3.394531 L 4.6875 -5.453125 L 3.359375 -5.453125 C 2.949219 -5.453125 2.648438 -5.355469 2.457031 -5.167969 C 2.261719 -4.976562 2.164062 -4.730469 2.164062 -4.429688 C 2.164062 -4.128906 2.261719 -3.878906 2.453125 -3.6875 C 2.644531 -3.492188 2.945312 -3.394531 3.359375 -3.394531 L 4.6875 -3.394531 M 6.746094 -6.054688 L 6.746094 -5.453125 L 5.738281 -5.453125 L 5.738281 -0.605469 L 6.683594 -0.605469 L 6.683594 0 L 3.777344 0 L 3.777344 -0.605469 L 4.6875 -0.605469 L 4.6875 -2.808594 L 3.753906 -2.808594 L 2.003906 0 L 0.371094 0 L 0.371094 -0.605469 L 1.207031 -0.605469 L 2.625 -2.882812 C 2.355469 -2.953125 2.023438 -3.113281 1.628906 -3.355469 C 1.234375 -3.601562 1.035156 -3.992188 1.035156 -4.53125 C 1.035156 -4.984375 1.195312 -5.351562 1.519531 -5.632812 C 1.839844 -5.914062 2.292969 -6.054688 2.882812 -6.054688 Z "/>
</g>
<g id="glyph-0-12">
<path d="M 2.535156 -5.367188 L 2.535156 -4.375 C 2.535156 -3.480469 2.484375 -2.746094 2.382812 -2.183594 C 2.277344 -1.617188 2.183594 -1.148438 2.089844 -0.78125 C 2.082031 -0.75 2.089844 -0.730469 2.109375 -0.71875 C 2.125 -0.707031 2.183594 -0.699219 2.277344 -0.699219 L 4.71875 -0.699219 L 4.71875 -5.367188 L 2.535156 -5.367188 M 1.835938 -5.453125 L 0.890625 -5.453125 L 0.890625 -6.054688 L 6.703125 -6.054688 L 6.703125 -5.453125 L 5.765625 -5.453125 L 5.765625 -0.605469 L 6.703125 -0.605469 L 6.703125 1.613281 L 6.113281 1.613281 L 6.019531 0.808594 C 5.960938 0.269531 5.742188 0 5.359375 0 L 1.765625 0 C 1.386719 0 1.164062 0.269531 1.105469 0.808594 L 1.015625 1.613281 L 0.421875 1.613281 L 0.421875 -0.605469 L 0.742188 -0.605469 C 1.023438 -0.605469 1.25 -0.832031 1.429688 -1.289062 C 1.609375 -1.742188 1.71875 -2.210938 1.765625 -2.691406 C 1.8125 -3.171875 1.835938 -3.734375 1.835938 -4.378906 Z "/>
</g>
</g>
</defs>
<g fill="rgb(100%, 100%, 100%)" fill-opacity="1">
<use xlink:href="#glyph-0-0" x="30" y="30.829102"/>
<use xlink:href="#glyph-0-1" x="36" y="30.829102"/>
<use xlink:href="#glyph-0-2" x="44" y="30.829102"/>
<use xlink:href="#glyph-0-1" x="51" y="30.829102"/>
<use xlink:href="#glyph-0-3" x="59" y="30.829102"/>
<use xlink:href="#glyph-0-4" x="67" y="30.829102"/>
<use xlink:href="#glyph-0-5" x="74" y="30.829102"/>
<use xlink:href="#glyph-0-6" x="78" y="30.829102"/>
<use xlink:href="#glyph-0-7" x="85" y="30.829102"/>
<use xlink:href="#glyph-0-8" x="92" y="30.829102"/>
<use xlink:href="#glyph-0-3" x="99" y="30.829102"/>
<use xlink:href="#glyph-0-9" x="107" y="30.829102"/>
<use xlink:href="#glyph-0-2" x="114" y="30.829102"/>
<use xlink:href="#glyph-0-4" x="121" y="30.829102"/>
<use xlink:href="#glyph-0-10" x="128" y="30.829102"/>
<use xlink:href="#glyph-0-6" x="134" y="30.829102"/>
<use xlink:href="#glyph-0-11" x="141" y="30.829102"/>
<use xlink:href="#glyph-0-5" x="148" y="30.829102"/>
<use xlink:href="#glyph-0-7" x="152" y="30.829102"/>
<use xlink:href="#glyph-0-12" x="159" y="30.829102"/>
<use xlink:href="#glyph-0-3" x="166" y="30.829102"/>
<use xlink:href="#glyph-0-1" x="174" y="30.829102"/>
<use xlink:href="#glyph-0-5" x="182" y="30.829102"/>
<use xlink:href="#glyph-0-9" x="186" y="30.829102"/>
<use xlink:href="#glyph-0-2" x="193" y="30.829102"/>
<use xlink:href="#glyph-0-0" x="200" y="30.829102"/>
</g>
</svg>
